<svg width="180" height="30" xmlns="http://www.w3.org/2000/svg">
    <metadata id="metadata21">image/svg+xml</metadata>

    <g>
        <title>background</title>
        <rect fill="none" id="canvas_background" height="32" width="182" y="-1" x="-1" />
    </g>
    <g>
        <title>Layer 1</title>
        <path stroke="null" fill="#ff9900" fill-rule="evenodd" id="path8" d="m143.75022,23.4797c-5.64029,4.15734 -13.81555,6.37543 -20.8543,6.37543c-9.86946,0 -18.7545,-3.65035 -25.47638,-9.72158c-0.52812,-0.47742 -0.05493,-1.12806 0.57882,-0.75627c7.25422,4.22072 16.22377,6.7599 25.48906,6.7599c6.24868,0 13.12266,-1.29283 19.44316,-3.97567c0.95484,-0.4056 1.75335,0.62529 0.81964,1.31818" />
        <path stroke="null" fill="#ff9900" fill-rule="evenodd" id="path10" d="m146.77591,21.34016c-0.85402,-1.09515 -5.66665,-0.51743 -7.82681,-0.26123c-0.6581,0.08038 -0.75857,-0.49232 -0.16578,-0.90426c3.83303,-2.69769 10.12261,-1.91902 10.85605,-1.01477c0.73345,0.90928 -0.1909,7.21393 -3.79284,10.22308c-0.5526,0.46217 -1.08008,0.21602 -0.83392,-0.39687c0.8088,-2.0195 2.62233,-6.54578 1.76329,-7.64595" />
        <path stroke="null" fill="#000000" fill-rule="evenodd" id="path12" d="m142.79073,3.16314l0,-2.17334c0,-0.32892 0.24981,-0.54958 0.54958,-0.54958l9.73006,0c0.31226,0 0.56207,0.22483 0.56207,0.54958l0,1.86108c-0.00416,0.31226 -0.26646,0.72028 -0.73278,1.36562l-5.04198,7.19867c1.87357,-0.0458 3.85123,0.23315 5.54993,1.19076c0.38304,0.2165 0.48713,0.53293 0.51627,0.84519l0,2.31906c0,0.31642 -0.34973,0.68697 -0.71612,0.49545c-2.99355,-1.56964 -6.96968,-1.74034 -10.27965,0.01666c-0.33724,0.18319 -0.69114,-0.18319 -0.69114,-0.49962l0,-2.20248c0,-0.3539 0.00416,-0.9576 0.35806,-1.49469l5.84137,-8.37693l-5.08361,0c-0.31226,0 -0.56207,-0.22066 -0.56207,-0.54542" />
        <path stroke="null" fill="#000000" fill-rule="evenodd" id="path14" d="m107.55862,16.29449l-2.81448,0c-0.26917,-0.01979 -0.48293,-0.22167 -0.50273,-0.47898l0,-14.44447c0,-0.28897 0.24147,-0.51856 0.54231,-0.51856l2.62447,0c0.27314,0.01187 0.49085,0.22167 0.51065,0.48293l0,1.8882l0.05146,0c0.68482,-1.82486 1.97132,-2.67593 3.70513,-2.67593c1.76152,0 2.86198,0.85107 3.65367,2.67593c0.68086,-1.82486 2.22862,-2.67593 3.88722,-2.67593c1.17963,0 2.47009,0.48689 3.25783,1.57943c0.89066,1.21525 0.70857,2.98073 0.70857,4.5285l-0.00396,9.11637c0,0.28897 -0.24147,0.52252 -0.54231,0.52252l-2.81052,0c-0.28105,-0.01979 -0.50668,-0.24542 -0.50668,-0.52252l0,-7.65569c0,-0.6096 0.05541,-2.12966 -0.07917,-2.7076c-0.2098,-0.96982 -0.8392,-1.24296 -1.65464,-1.24296c-0.68086,0 -1.39338,0.45523 -1.68235,1.18359c-0.28897,0.72836 -0.26126,1.94757 -0.26126,2.76697l0,7.65569c0,0.28897 -0.24147,0.52252 -0.54231,0.52252l-2.81052,0c-0.28501,-0.01979 -0.50669,-0.24542 -0.50669,-0.52252l-0.00396,-7.65569c0,-1.6111 0.26521,-3.98223 -1.73381,-3.98223c-2.02278,0 -1.94361,2.31175 -1.94361,3.98223l0,7.65569c0,0.28897 -0.24147,0.52252 -0.54231,0.52252" />
        <path stroke="null" fill="#000000" fill-rule="evenodd" id="path16" d="m160.4737,0.52375c4.06359,0 6.26293,3.48968 6.26293,7.92689c0,4.28699 -2.43045,7.68808 -6.26293,7.68808c-3.99041,0 -6.16279,-3.48968 -6.16279,-7.83829c0,-4.37558 2.19935,-7.77667 6.16279,-7.77667m0.02311,2.86955c-2.01831,0 -2.14542,2.75014 -2.14542,4.46417c0,1.71788 -0.02696,5.38473 2.12231,5.38473c2.12231,0 2.22246,-2.95814 2.22246,-4.76075c0,-1.18633 -0.05007,-2.60378 -0.40829,-3.72849c-0.30814,-0.97834 -0.92056,-1.35966 -1.79106,-1.35966" />
        <path stroke="null" fill="#000000" fill-rule="evenodd" id="path18" d="m171.54553,15.70747l-2.70238,0c-0.271,-0.01908 -0.48857,-0.23665 -0.48857,-0.50383l-0.00381,-13.93177c0.0229,-0.25573 0.2481,-0.45421 0.52292,-0.45421l2.51535,0c0.23665,0.01144 0.43131,0.17176 0.48475,0.38933l0,2.12984l0.04962,0c0.75957,-1.90464 1.82449,-2.81307 3.6986,-2.81307c1.2176,0 2.40466,0.43895 3.16805,1.64128c0.70995,1.11454 0.70995,2.98865 0.70995,4.33602l0,8.76748c-0.03053,0.24428 -0.25573,0.43894 -0.52292,0.43894l-2.72147,0c-0.2481,-0.01908 -0.45422,-0.20229 -0.48093,-0.43894l0,-7.56514c0,-1.52295 0.17558,-3.75204 -1.69853,-3.75204c-0.66033,0 -1.26722,0.44277 -1.56876,1.11454c-0.38169,0.85118 -0.43131,1.69853 -0.43131,2.6375l0,7.50026c-0.00381,0.27863 -0.24047,0.50383 -0.53055,0.50383" />
        <path stroke="null" fill="#000000" fill-rule="evenodd" id="path28" d="m135.12213,9.79897c0,1.13469 0.02867,2.08095 -0.54482,3.08866c-0.46289,0.81928 -1.20023,1.32313 -2.01541,1.32313c-1.11831,0 -1.77373,-0.85205 -1.77373,-2.10963c0,-2.48239 2.22432,-2.93299 4.33395,-2.93299l0,0.63084m2.93709,7.099c-0.19253,0.17205 -0.47108,0.18434 -0.68819,0.06964c-0.96674,-0.80289 -1.14289,-1.17565 -1.67132,-1.94167c-1.59758,1.63035 -2.73228,2.11782 -4.80094,2.11782c-2.45372,0 -4.35853,-1.51156 -4.35853,-4.53877c0,-2.3636 1.27807,-3.97347 3.10504,-4.75998c1.58119,-0.69638 3.78913,-0.81927 5.47684,-1.0118l0,-0.37687c0,-0.69229 0.05325,-1.51156 -0.35638,-2.10963c-0.35229,-0.53662 -1.03229,-0.75783 -1.63445,-0.75783c-1.11012,0 -2.09734,0.56939 -2.33902,1.74915c-0.04916,0.26217 -0.24168,0.52024 -0.50795,0.53253l-2.82239,-0.30313c-0.23759,-0.05325 -0.50385,-0.24578 -0.43421,-0.61035c0.64723,-3.42456 3.74408,-4.45685 6.51322,-4.45685c1.41734,0 3.2689,0.37687 4.38721,1.45011c1.41734,1.32313 1.28216,3.08866 1.28216,5.00985l0,4.53877c0,1.36409 0.5653,1.96216 1.09782,2.69951c0.18434,0.26216 0.2253,0.57758 -0.0123,0.77421c-0.59397,0.49566 -1.65084,1.41734 -2.23252,1.93348l-0.00409,-0.00821" />
        <path stroke="null" fill="#000000" fill-rule="evenodd" id="path30" d="m96.60346,9.82235c0,1.13754 0.02874,2.08618 -0.54619,3.09642c-0.46406,0.82134 -1.19915,1.32645 -2.02048,1.32645c-1.12112,0 -1.77408,-0.85419 -1.77408,-2.11493c0,-2.48864 2.22992,-2.94037 4.34074,-2.94037l0,0.63243m2.94448,7.11685c-0.19301,0.17248 -0.47227,0.1848 -0.68992,0.06981c-0.96917,-0.80491 -1.14165,-1.17861 -1.67552,-1.94656c-1.6016,1.63445 -2.73504,2.12314 -4.81301,2.12314c-2.45579,0 -4.36949,-1.51536 -4.36949,-4.55018c0,-2.36955 1.28538,-3.98346 3.11285,-4.77194c1.58517,-0.69814 3.79866,-0.82133 5.49061,-1.01435l0,-0.37781c0,-0.69403 0.05339,-1.51536 -0.35317,-2.11493c-0.35728,-0.53797 -1.03899,-0.75973 -1.63856,-0.75973c-1.1129,0 -2.10672,0.57083 -2.34901,1.75354c-0.04928,0.26283 -0.24229,0.52155 -0.50512,0.53387l-2.8336,-0.3039c-0.23819,-0.05338 -0.50101,-0.2464 -0.43531,-0.61189c0.65296,-3.43317 3.75349,-4.46805 6.5296,-4.46805c1.4209,0 3.27711,0.37781 4.39823,1.45376c1.42091,1.32645 1.28538,3.09642 1.28538,5.02245l0,4.55018c0,1.36752 0.56672,1.96709 1.10059,2.70629c0.18891,0.26282 0.22997,0.57904 -0.00822,0.77616c-0.59547,0.49691 -1.65498,1.42091 -2.23813,1.93835l-0.00821,-0.00823" />
        <text font-weight="bold" xml:space="preserve" text-anchor="start" font-family="Junction, sans-serif" font-size="14" id="svg_1" y="19.47266" x="1.25" fill-opacity="null" stroke-opacity="null" stroke-width="0" stroke="null" fill="#000000">Login with</text>
    </g>
</svg>
