<svg width="180.00000000000003" height="30" xmlns="http://www.w3.org/2000/svg">
    <style type="text/css">
        .st0 {
            fill: #1877F2;
        }

        .st1 {
            fill: #FFFFFF;
        }

        .st2 {
            font-family: 'FacebookSansJP-Regular';
        }

        .st3 {
            font-size: 24px;
        }

        .st4 {
            letter-spacing: -1;
        }
    </style>

    <title>FindUsOn-FB_ja-JP-RGB-1668</title>
    <g>
        <title>background</title>
        <rect fill="none" id="canvas_background" height="11.999845" width="61.999069" y="-1" x="-1" />
    </g>
    <g>
        <title>Layer 1</title>
    </g>
    <g>
        <g stroke="null" id="svg_2">
            <path stroke="null" id="svg_3" d="m28.288175,15.080252c0,-6.700609 -6.000156,-12.143297 -13.387073,-12.143297s-13.387073,5.442688 -13.387073,12.143297c0,6.065421 4.901729,11.08465 11.300063,11.993841l0,-8.49408l-3.418853,0l0,-3.512215l3.418853,0l0,-2.677753c0,-3.038938 1.990898,-4.732771 5.039032,-4.732771c1.469146,0 2.979482,0.261547 2.979482,0.261547l0,2.96421l-1.6751,0c-1.661371,0 -2.196853,0.946554 -2.196853,1.905563l0,2.279202l3.72092,0l-0.590404,3.512215l-3.116785,0l0,8.49408c6.412065,-0.90919 11.313794,-5.928419 11.313794,-11.993841" class="st0" />
            <path stroke="null" id="svg_4" d="m20.104898,18.592465l0.590404,-3.512215l-3.72092,0l0,-2.279202c0,-0.959009 0.535483,-1.905563 2.196853,-1.905563l1.6751,0l0,-2.96421c0,0 -1.524067,-0.261547 -2.979482,-0.261547c-3.061864,0 -5.039032,1.693835 -5.039032,4.732771l0,2.677753l-3.418853,0l0,3.512215l3.418853,0l0,8.49408c0.672786,0.099637 1.373033,0.149456 2.08701,0.149456s1.400494,-0.049819 2.08701,-0.149456l0,-8.49408l3.103056,0l0.000001,-0.000002l0,0z" class="st1" />
        </g>
        <title>Layer 2</title>
        <g stroke="null" id="svg_5">
            <text x="31.667382" y="24.000445" stroke="null" id="svg_6" class="st0 st2 st3 st4">Facebook</text>
        </g>
    </g>
</svg>
