<svg width="180" height="30" xmlns="http://www.w3.org/2000/svg">
    <metadata id="metadata8">image/svg+xml</metadata>

    <g>
        <title>background</title>
        <rect x="-1" y="-1" width="182" height="32" id="canvas_background" fill="none" />
    </g>
    <g>
        <title>Layer 2</title>
        <path d="m14.289083,2.69529c-6.787004,0 -12.289104,5.502099 -12.289104,12.289104c0,5.428425 3.521697,10.034628 8.404922,11.661387c0.612982,0.111987 0.836956,-0.265232 0.836956,-0.592352c0,-0.291756 -0.008841,-1.063877 -0.014736,-2.089442c-3.418552,0.742651 -4.140573,-1.647388 -4.140573,-1.647388c-0.559935,-1.420467 -1.364474,-1.797686 -1.364474,-1.797686c-1.116923,-0.76328 0.085464,-0.748545 0.085464,-0.748545c1.231857,0.088411 1.880203,1.267222 1.880203,1.267222c1.096294,1.877256 2.879246,1.335003 3.577692,1.019671c0.111987,-0.79275 0.430266,-1.335003 0.780962,-1.641494c-2.728948,-0.309438 -5.599352,-1.364474 -5.599352,-6.073823c0,-1.340898 0.480366,-2.437192 1.267221,-3.297724c-0.126722,-0.309438 -0.551094,-1.558977 0.117881,-3.253518c0,0 1.034407,-0.330067 3.380241,1.261328c0.98136,-0.271127 2.033449,-0.409637 3.076697,-0.415531c1.043248,0.005894 2.095337,0.144404 3.076697,0.415531c2.345834,-1.591395 3.377294,-1.261328 3.377294,-1.261328c0.668975,1.694541 0.24755,2.94408 0.120828,3.253518c0.786856,0.860532 1.264275,1.956826 1.264275,3.297724c0,4.721137 -2.873352,5.761438 -5.61114,6.064982c0.442054,0.380166 0.834009,1.128712 0.834009,2.275105c0,1.641494 -0.014735,2.967657 -0.014735,3.371399c0,0.330067 0.221026,0.710233 0.845796,0.592352c4.87733,-1.629706 8.396081,-6.232962 8.396081,-11.661387c0,-6.787004 -5.5021,-12.289104 -12.289104,-12.289104" fill="rgb(9.399414%,8.999634%,8.999634%)" fill-rule="evenodd" id="svg_4" stroke="null" />
    </g>
    <g>
        <title>Layer 1</title>
        <g transform="matrix(0.2594985638865991,0,0,-0.2594985638865991,-0.40426401937186984,149.21577634843425) " id="g10">
            <g id="g14">
                <g id="g50">
                    <path id="path52" d="m199.126308,526.768435l-30.267,0c-0.781,0 -1.415,-0.634 -1.415,-1.415l0,-14.798c0,-0.781 0.634,-1.416 1.415,-1.416l11.807,0l0,-18.386c0,0 -2.651,-0.903 -9.981,-0.903c-8.647,0 -20.727,3.159 -20.727,29.723c0,26.569 12.579,30.065 24.388,30.065c10.222,0 14.626,-1.8 17.428,-2.667c0.881,-0.269 1.695,0.607 1.695,1.388l3.377,14.298c0,0.366 -0.124,0.806 -0.54,1.105c-1.138,0.812 -8.081,4.697 -25.621,4.697c-20.205,0 -40.932,-8.597 -40.932,-49.922c0,-41.326 23.73,-47.484 43.727,-47.484c16.557,0 26.601,7.075 26.601,7.075c0.414,0.228 0.459,0.807 0.459,1.072l0,46.153c0,0.781 -0.633,1.415 -1.414,1.415" fill-rule="nonzero" fill="#2e2d2d" />
                </g>
                <g id="g54">
                    <path id="path56" d="m355.109698,563.507725c0,0.787 -0.624,1.423 -1.405,1.423l-17.042,0c-0.779,0 -1.411,-0.636 -1.411,-1.423c0,-0.004 0.004,-32.935 0.004,-32.935l-26.564,0l0,32.935c0,0.787 -0.627,1.423 -1.407,1.423l-17.041,0c-0.775,0 -1.407,-0.636 -1.407,-1.423l0,-89.178c0,-0.786 0.632,-1.426 1.407,-1.426l17.041,0c0.78,0 1.407,0.64 1.407,1.426l0,38.145l26.564,0c0,0 -0.046,-38.142 -0.046,-38.145c0,-0.786 0.631,-1.426 1.412,-1.426l17.082,0c0.78,0 1.404,0.64 1.406,1.426l0,89.178z" fill-rule="nonzero" fill="#2e2d2d" />
                </g>
                <g id="g58">
                    <path fill="#2e2d2d" fill-rule="nonzero" d="m231.285508,551.805515c0,6.136 -4.92,11.095 -10.99,11.095c-6.064,0 -10.987,-4.959 -10.987,-11.095c0,-6.13 4.923,-11.103 10.987,-11.103c6.07,0 10.99,4.973 10.99,11.103" id="path60" />
                </g>
                <g id="g62">
                    <path fill="#2e2d2d" fill-rule="nonzero" d="m230.066798,493.141535l0,41.165c0,0.781 -0.63,1.42 -1.41,1.42l-16.988,0c-0.78,0 -1.477,-0.803 -1.477,-1.585l0,-58.977c0,-1.732 1.08,-2.248 2.478,-2.248l15.306,0c1.679,0 2.091,0.825 2.091,2.276l0,17.949z" id="path64" />
                </g>
                <g id="g66">
                    <path id="path68" d="m419.877308,535.592625l-16.911,0c-0.776,0 -1.407,-0.639 -1.407,-1.426l0,-43.726c0,0 -4.297,-3.144 -10.395,-3.144c-6.098,0 -7.716,2.767 -7.716,8.738l0,38.132c0,0.787 -0.63,1.426 -1.406,1.426l-17.164,0c-0.774,0 -1.409,-0.639 -1.409,-1.426l0,-41.019c0,-17.735 9.884,-22.074 23.481,-22.074c11.156,0 20.15,6.163 20.15,6.163c0,0 0.427,-3.248 0.622,-3.633c0.193,-0.384 0.698,-0.772 1.244,-0.772l10.919,0.048c0.774,0 1.409,0.64 1.409,1.424l-0.006,59.863c0,0.787 -0.632,1.426 -1.411,1.426" fill-rule="nonzero" fill="#2e2d2d" />
                </g>
                <g id="g70">
                    <path id="path72" d="m459.429118,487.350925c-5.866,0.179 -9.845,2.84 -9.845,2.84l0,28.241c0,0 3.925,2.406 8.741,2.836c6.09,0.545 11.958,-1.294 11.958,-15.822c0,-15.319 -2.648,-18.343 -10.854,-18.095m6.67,50.245c-9.605,0 -16.138,-4.286 -16.138,-4.286l0,30.198c0,0.787 -0.63,1.423 -1.406,1.423l-17.091,0c-0.777,0 -1.408,-0.636 -1.408,-1.423l0,-89.178c0,-0.787 0.631,-1.427 1.41,-1.427l11.858,0c0.534,0 0.938,0.276 1.237,0.758c0.295,0.479 0.72,4.111 0.72,4.111c0,0 6.988,-6.622 20.217,-6.622c15.532,0 24.439,7.878 24.439,35.366c0,27.488 -14.226,31.08 -23.838,31.08" fill-rule="nonzero" fill="#2e2d2d" />
                </g>
                <g id="g74">
                    <path fill="#2e2d2d" fill-rule="nonzero" d="m279.046798,535.734715l-12.784,0c0,0 -0.019,16.885 -0.019,16.889c0,0.639 -0.329,0.959 -1.069,0.959l-17.42,0c-0.677,0 -1.041,-0.299 -1.041,-0.95l0,-17.452c0,0 -8.73,-2.107 -9.32,-2.278c-0.588,-0.17 -1.021,-0.712 -1.021,-1.359l0,-10.967c0,-0.788 0.63,-1.425 1.409,-1.425l8.932,0l0,-26.384c0,-19.596 13.746,-21.521 23.021,-21.521c4.239,0 9.309,1.361 10.146,1.67c0.506,0.186 0.801,0.71 0.801,1.278l0.014,12.065c0,0.787 -0.665,1.424 -1.413,1.424c-0.745,0 -2.651,-0.303 -4.613,-0.303c-6.279,0 -8.407,2.919 -8.407,6.698c0,3.777 -0.001,25.073 -0.001,25.073l12.785,0c0.779,0 1.411,0.637 1.411,1.425l0,13.737c0,0.787 -0.632,1.421 -1.411,1.421" id="path76" />
                </g>
            </g>
        </g>
    </g>
</svg>
